<svg xmlns="http://www.w3.org/2000/svg" viewBox="0 0 32 32" width="32" height="32">
  <rect width="32" height="32" rx="6" fill="#0a0e0b"/>
  <g fill="none" stroke="#c4f230" stroke-width="0.9" opacity="0.55">
    <g transform="translate(16 16)">
      <line x1="0" y1="-13.5" x2="0" y2="-11" transform="rotate(0)"/>
      <line x1="0" y1="-13.5" x2="0" y2="-11" transform="rotate(30)"/>
      <line x1="0" y1="-13.5" x2="0" y2="-11" transform="rotate(60)"/>
      <line x1="0" y1="-13.5" x2="0" y2="-11" transform="rotate(90)"/>
      <line x1="0" y1="-13.5" x2="0" y2="-11" transform="rotate(120)"/>
      <line x1="0" y1="-13.5" x2="0" y2="-11" transform="rotate(150)"/>
      <line x1="0" y1="-13.5" x2="0" y2="-11" transform="rotate(180)"/>
      <line x1="0" y1="-13.5" x2="0" y2="-11" transform="rotate(210)"/>
      <line x1="0" y1="-13.5" x2="0" y2="-11" transform="rotate(240)"/>
      <line x1="0" y1="-13.5" x2="0" y2="-11" transform="rotate(270)"/>
      <line x1="0" y1="-13.5" x2="0" y2="-11" transform="rotate(300)"/>
      <line x1="0" y1="-13.5" x2="0" y2="-11" transform="rotate(330)"/>
    </g>
  </g>
  <text x="16" y="22" font-family="Georgia, 'Times New Roman', serif" font-style="italic" font-size="18" fill="#c4f230" text-anchor="middle">L</text>
</svg>
